<svg id="Capa_1" enable-background="new 0 0 512 512" height="512" viewBox="0 0 512 512" width="512" xmlns="http://www.w3.org/2000/svg"><g><g><g><path d="m5.127 141.341-5.127 9.235v266.984c0 17.618 14.282 31.9 31.9 31.9h448.2c17.618 0 31.9-14.282 31.9-31.9v-266.984l-5.127-9.235z" fill="#ddeafb"/></g></g><g><g><path d="m459.765 141.341v223.983c0 17.618-14.282 31.9-31.9 31.9h-427.865v20.335c0 17.618 14.282 31.9 31.9 31.9h448.2c17.618 0 31.9-14.282 31.9-31.9v-266.983l-5.127-9.235z" fill="#cbe2ff"/></g></g><g><g><path d="m480.1 62.54h-448.2c-17.618 0-31.9 14.282-31.9 31.9v56.136h512v-56.136c0-17.618-14.282-31.9-31.9-31.9z" fill="#698ed5"/></g></g><g><g><path d="m480.1 62.54h-20.335v88.036h52.235v-56.136c0-17.618-14.282-31.9-31.9-31.9z" fill="#4073c8"/></g></g><g><g><g><circle cx="57.783" cy="106.558" fill="#dd636e" r="14.312"/></g></g><g><g><circle cx="101.809" cy="106.558" fill="#ffe07d" r="14.312"/></g></g><g><g><circle cx="145.835" cy="106.558" fill="#86f1a7" r="14.312"/></g></g></g><g><g><g><path d="m141.551 347.208c-36.637 0-66.443-29.806-66.443-66.443s29.806-66.443 66.443-66.443c13.314 0 26.162 3.926 37.155 11.352 3.536 2.389 4.466 7.192 2.077 10.728-2.388 3.535-7.192 4.466-10.728 2.077-8.428-5.694-18.285-8.704-28.504-8.704-28.116 0-50.99 22.874-50.99 50.99s22.874 50.99 50.99 50.99c10.745 0 19.858-3.264 27.087-9.702 1.404-1.251 2.745-2.634 3.984-4.112 2.742-3.27 7.616-3.697 10.885-.955 3.27 2.742 3.697 7.615.955 10.885-1.719 2.05-3.586 3.975-5.547 5.722-10.001 8.907-22.921 13.615-37.364 13.615z" fill="#595454"/></g></g><g><g><path d="m258.626 347.208c-17.891 0-35.33-7.456-46.648-19.946-2.865-3.162-2.625-8.048.537-10.913s8.048-2.625 10.913.537c8.438 9.31 21.595 14.869 35.197 14.869 15.557 0 25.707-9.832 27.359-19.083 1.748-9.788-5.482-18.439-19.836-23.733-17.999-6.639-33.966-13.747-34.637-14.046-.372-.166-.73-.361-1.072-.584-10.091-6.578-15.288-18.126-13.564-30.136 1.863-12.978 11.464-23.584 25.057-27.679 28.522-8.594 52.13 10.878 53.121 11.711 3.267 2.746 3.689 7.62.943 10.886-2.739 3.26-7.597 3.688-10.864.962-.181-.149-18.339-14.906-38.743-8.763-7.888 2.376-13.203 8.013-14.217 15.078-.846 5.892 1.481 11.337 6.239 14.679 3.082 1.358 17.501 7.645 33.086 13.393 25.602 9.444 32.129 27.344 29.7 40.947-3.239 18.141-21.54 31.821-42.571 31.821z" fill="#595454"/></g></g><g><g><path d="m374.047 347.208c-17.891 0-35.329-7.456-46.648-19.945-2.866-3.162-2.625-8.048.536-10.913 3.163-2.866 8.049-2.625 10.913.536 8.438 9.311 21.597 14.87 35.198 14.87 15.557 0 25.707-9.832 27.359-19.083 1.748-9.788-5.482-18.439-19.836-23.733-17.999-6.639-33.966-13.747-34.637-14.046-.372-.166-.73-.361-1.071-.584-10.091-6.578-15.289-18.126-13.565-30.136 1.863-12.978 11.464-23.584 25.056-27.679 28.522-8.594 52.13 10.878 53.121 11.711 3.267 2.745 3.689 7.62.943 10.886-2.74 3.261-7.6 3.687-10.866.96-.311-.255-18.41-14.881-38.741-8.761-7.888 2.376-13.203 8.013-14.217 15.078-.846 5.892 1.481 11.338 6.24 14.679 3.082 1.358 17.501 7.645 33.086 13.393 25.602 9.444 32.128 27.344 29.7 40.947-3.239 18.14-21.541 31.82-42.571 31.82z" fill="#595454"/></g></g></g></g></svg>