<svg xmlns="http://www.w3.org/2000/svg" viewBox="0 0 60 60"><defs><style>.cls-1{fill:#fff;}.cls-2{fill:#1c77b9;}</style></defs><g id="Calque_2" data-name="Calque 2"><g id="Calque_1-2" data-name="Calque 1"><circle class="cls-1" cx="30" cy="30" r="30"/><path class="cls-2" d="M27.74,45.17a3.17,3.17,0,0,0-.14-3.54,2.71,2.71,0,0,0-2.73-1.53,6.35,6.35,0,0,0-2.39.89l-5.35,3.09,3.35,5.79,5.28-3A6,6,0,0,0,27.74,45.17Z"/><path class="cls-2" d="M19.78,31.81A9.46,9.46,0,0,0,17,33l-4.73,2.73,2.76,4.79,5.29-3a5.17,5.17,0,0,0,2-1.87,2.39,2.39,0,0,0-.22-2.42A2.26,2.26,0,0,0,19.78,31.81Z"/><path class="cls-2" d="M46.69,32.32a10.07,10.07,0,0,0-5.19-4,10.53,10.53,0,0,0,3.42-2.56A10,10,0,0,0,47,19.17a11.41,11.41,0,0,0-2.07-6.86Q41.52,7.64,33.29,7.52H11.56V29.23a1.06,1.06,0,0,0,1.59.92l3.13-1.8q4-2.24,7-.94a6.39,6.39,0,0,1,2.91,2.74A5.56,5.56,0,0,1,27,33.94a6,6,0,0,1-.94,2.19,5.58,5.58,0,0,1,3.62.47,6.63,6.63,0,0,1,2.68,2.7,7.31,7.31,0,0,1,1,4,6.93,6.93,0,0,1-.56,2.6A6.82,6.82,0,0,1,31,48.43a17.79,17.79,0,0,1-2.9,2.07h0a1.06,1.06,0,0,0,.53,2h3.17a30.9,30.9,0,0,0,6.35-.61,12.45,12.45,0,0,0,8.27-5.79,13.21,13.21,0,0,0,2-7.17A11.89,11.89,0,0,0,46.69,32.32Z"/></g></g></svg>